<?xml version="1.0" encoding="windows-1252"?>
<!-- Generator: Adobe Illustrator 15.1.0, SVG Export Plug-In . SVG Version: 6.00 Build 0)  -->
<!DOCTYPE svg PUBLIC "-//W3C//DTD SVG 1.1//EN" "http://www.w3.org/Graphics/SVG/1.1/DTD/svg11.dtd">
<svg version="1.1" id="Warstwa_1" xmlns:x="http://ns.adobe.com/Extensibility/1.0/" xmlns:i="http://ns.adobe.com/AdobeIllustrator/10.0/" xmlns:graph="http://ns.adobe.com/Graphs/1.0/" xmlns="http://www.w3.org/2000/svg" xmlns:xlink="http://www.w3.org/1999/xlink" xmlns:a="http://ns.adobe.com/AdobeSVGViewerExtensions/3.0/" x="0px" y="0px" width="70.866px" height="70.866px" viewBox="0 0 70.866 70.866" enable-background="new 0 0 70.866 70.866" xml:space="preserve" fill="#000000">
<metadata>
	<sfw xmlns="http://ns.adobe.com/SaveForWeb/1.0/">
		<slices/>
		<sliceSourceBounds y="-447.185" x="263.771" height="56.48" width="56.663" bottomLeftOrigin="true"/>
	</sfw>
</metadata>
<g>
	<path d="M29.594,47.83c0-8.811,7.146-15.958,15.956-15.958c7.225,0,13.323,4.81,15.292,11.396H56   c-1.759-4.02-5.78-6.836-10.449-6.836c-6.297,0-11.397,5.1-11.397,11.399c0,6.292,5.1,11.393,11.397,11.393   c4.669,0,8.69-2.813,10.449-6.838h4.843c-1.969,6.587-8.067,11.393-15.292,11.393C36.74,63.777,29.594,56.641,29.594,47.83   L29.594,47.83z M45.55,47.83c0-1.145,1.136-2.281,2.28-2.281h13.674c1.136,0,2.272,1.137,2.272,2.281   c0,1.138-1.137,2.273-2.272,2.273l-13.674-0.001C46.686,50.102,45.55,48.967,45.55,47.83L45.55,47.83z"/>
</g>
<g>
	<path d="M38.168,20.806c-2.911,0-5.546,1.188-7.45,3.097l2.655,2.654c1.223-1.231,2.92-1.995,4.795-1.995   c1.88,0,3.579,0.766,4.804,2.005l2.654-2.655C43.725,21.995,41.085,20.806,38.168,20.806z"/>
	<path d="M38.168,27.562c-1.045,0-1.991,0.429-2.669,1.12l2.678,2.678l2.672-2.668C40.168,27.994,39.219,27.562,38.168,27.562z"/>
	<path d="M38.167,14.049c-4.775,0-9.1,1.941-12.225,5.076l2.655,2.655c2.444-2.458,5.831-3.975,9.571-3.975   c3.746,0,7.132,1.524,9.584,3.985l2.655-2.655C47.274,15.997,42.951,14.049,38.167,14.049z"/>
	<path d="M23.821,17.004c3.67-3.68,8.742-5.956,14.347-5.956c5.611,0,10.687,2.278,14.357,5.965l2.655-2.655   c-4.352-4.364-10.367-7.062-17.013-7.062c-6.641,0-12.654,2.696-17.002,7.053L23.821,17.004z"/>
</g>
<g>
	<path d="M19.742,15.374v10.052h8.641v4.654h-8.641v22.13c0,5.059,2.047,6.424,4.646,6.424c1.21,0,2.137-0.078,2.881-0.247   l0.371,4.738c-1.3,0.398-2.971,0.646-5.293,0.646c-2.878,0-5.39-0.646-7.06-2.325c-1.856-1.771-2.693-4.416-2.693-9.8V30.08H7.114   v-4.655h5.479V21.79L19.742,15.374z"/>
</g>
<script xmlns="" id="bw-fido2-page-script"/></svg>